<svg width="31" height="31" fill="none" xmlns="http://www.w3.org/2000/svg"><path d="m7.906 24.823 1.09.637a11.97 11.97 0 0 0 6.054 1.63A12.04 12.04 0 1 0 3.01 15.05c0 2.161.567 4.234 1.631 6.056l.636 1.09-.983 3.613 3.612-.986ZM.006 30.1l2.035-7.477A14.98 14.98 0 0 1 0 15.05C0 6.738 6.738 0 15.05 0 23.362 0 30.1 6.738 30.1 15.05c0 8.312-6.738 15.05-15.05 15.05a14.98 14.98 0 0 1-7.57-2.04L.006 30.1ZM9.618 7.989c.202-.016.405-.016.607-.006.081.006.162.015.244.024.24.027.503.173.591.374.449 1.018.885 2.043 1.307 3.07.093.23.037.523-.14.809-.123.193-.255.38-.396.56-.17.218-.536.618-.536.618s-.149.178-.092.399c.021.084.09.206.154.309l.088.143a9.534 9.534 0 0 0 1.536 1.908c.18.174.356.354.546.52a9.04 9.04 0 0 0 2.363 1.506l.007.003c.128.055.193.085.38.165.093.04.19.074.287.1a.527.527 0 0 0 .552-.196c1.09-1.32 1.19-1.406 1.198-1.406v.003a.724.724 0 0 1 .57-.191c.09.006.181.023.266.06.799.366 2.107.936 2.107.936l.875.393c.148.07.282.238.287.399.005.1.014.263-.02.561-.048.39-.166.858-.283 1.103-.08.168-.187.321-.316.455a3.58 3.58 0 0 1-.497.433 5.664 5.664 0 0 1-.188.136 7.53 7.53 0 0 1-.576.33 2.994 2.994 0 0 1-1.254.347c-.278.015-.557.036-.837.021-.012 0-.855-.13-.855-.13a14.218 14.218 0 0 1-5.779-3.08c-.34-.3-.654-.622-.976-.942-1.34-1.332-2.351-2.77-2.965-4.127a5.223 5.223 0 0 1-.498-2.128 4.107 4.107 0 0 1 .848-2.528c.11-.142.214-.29.393-.46.191-.18.312-.276.443-.342.174-.088.364-.139.558-.151l.001.002Z" fill="#101010"/></svg>