<svg width="21" height="17" fill="none" xmlns="http://www.w3.org/2000/svg"><path d="M15.885 3.4h4.982v1.7h-1.993v11.05a.792.792 0 0 1-.292.601 1.09 1.09 0 0 1-.704.249H3.928a1.09 1.09 0 0 1-.704-.249.792.792 0 0 1-.292-.601V5.1H.939V3.4h4.982V.85c0-.225.105-.442.292-.601C6.4.089 6.653 0 6.917 0h7.971c.265 0 .518.09.705.249.187.16.292.376.292.601V3.4Zm.996 1.7H4.925v10.2H16.88V5.1Zm-4.57 5.1 1.762 1.503-1.409 1.202-1.761-1.503-1.762 1.503-1.409-1.202L9.494 10.2 7.732 8.697l1.41-1.202 1.76 1.503 1.763-1.503 1.408 1.202-1.761 1.503ZM7.915 1.7v1.7h5.978V1.7H7.914Z" fill="#DF6464"/></svg>