<svg width="31" height="31" fill="none" xmlns="http://www.w3.org/2000/svg"><path d="M15.05 27.09a12.04 12.04 0 1 0 0-24.08 12.04 12.04 0 0 0 0 24.08Zm0 3.01C6.738 30.1 0 23.362 0 15.05 0 6.738 6.738 0 15.05 0 23.362 0 30.1 6.738 30.1 15.05c0 8.312-6.738 15.05-15.05 15.05Zm-4.68-13.29L6.61 15.64c-.813-.249-.817-.809.182-1.21l14.648-5.66c.85-.346 1.332.092 1.057 1.19l-2.494 11.769c-.175.838-.679 1.038-1.379.651l-3.839-2.841-1.79 1.728c-.183.177-.332.33-.615.367-.281.039-.513-.045-.683-.512l-1.31-4.32-.018.011v-.001Z" fill="#101010"/></svg>