<svg width="85" height="23" fill="none" xmlns="http://www.w3.org/2000/svg"><path d="M21 19.875a5.571 5.571 0 0 1-2.075 1.6c-.8.367-1.683.55-2.65.55-1.3 0-2.475-.283-3.525-.85-1.05-.55-2.25-1.533-3.6-2.95-1.583-.2-3-.708-4.25-1.525A8.759 8.759 0 0 1 2 13.55c-.683-1.3-1.025-2.733-1.025-4.3 0-1.717.408-3.258 1.225-4.625a8.805 8.805 0 0 1 3.425-3.25C7.092.592 8.733.2 10.55.2c1.817 0 3.45.392 4.9 1.175a8.804 8.804 0 0 1 3.425 3.25c.833 1.367 1.25 2.908 1.25 4.625 0 2.033-.575 3.817-1.725 5.35-1.133 1.533-2.642 2.6-4.525 3.2.417.433.817.742 1.2.925.4.2.825.3 1.275.3 1.083 0 2.033-.433 2.85-1.3l1.8 2.15ZM5.075 9.25c0 1.083.233 2.05.7 2.9a5.292 5.292 0 0 0 1.975 2c.833.467 1.767.7 2.8.7s1.967-.233 2.8-.7a5.113 5.113 0 0 0 1.95-2c.483-.85.725-1.817.725-2.9s-.242-2.05-.725-2.9a4.942 4.942 0 0 0-1.95-1.975c-.833-.483-1.767-.725-2.8-.725s-1.967.242-2.8.725A5.112 5.112 0 0 0 5.775 6.35c-.467.85-.7 1.817-.7 2.9ZM30.744.5c1.55 0 2.891.258 4.025.775 1.15.517 2.033 1.25 2.65 2.2.616.95.925 2.075.925 3.375 0 1.283-.309 2.408-.925 3.375-.617.95-1.5 1.683-2.65 2.2-1.134.5-2.475.75-4.025.75h-3.525V18h-4.05V.5h7.575Zm-.225 9.375c1.216 0 2.141-.258 2.775-.775.633-.533.95-1.283.95-2.25 0-.983-.317-1.733-.95-2.25-.634-.533-1.559-.8-2.775-.8h-3.3v6.075h3.3ZM41.235.5h4.05V18h-4.05V.5Zm16.578 17.8c-1.783 0-3.4-.383-4.85-1.15a8.91 8.91 0 0 1-3.4-3.225c-.816-1.383-1.225-2.942-1.225-4.675 0-1.733.409-3.283 1.225-4.65a8.67 8.67 0 0 1 3.4-3.225C54.413.592 56.038.2 57.838.2c1.517 0 2.884.267 4.1.8a8.216 8.216 0 0 1 3.1 2.3l-2.6 2.4c-1.183-1.367-2.65-2.05-4.4-2.05-1.083 0-2.05.242-2.9.725a5.064 5.064 0 0 0-2 1.975c-.466.85-.7 1.817-.7 2.9s.234 2.05.7 2.9a5.24 5.24 0 0 0 2 2c.85.467 1.817.7 2.9.7 1.75 0 3.217-.692 4.4-2.075l2.6 2.4a8.104 8.104 0 0 1-3.1 2.325c-1.233.533-2.608.8-4.125.8Zm16.335-7.175-2.35 2.45V18h-4.025V.5h4.025v8.175L79.548.5h4.5l-7.25 7.8 7.675 9.7h-4.725l-5.6-6.875Z" fill="#101010"/></svg>