<svg width="31" height="21" fill="none" xmlns="http://www.w3.org/2000/svg"><path d="M0 3C0 1.96.575 1.401 1.725 1.32l4.432.03c.297 0 .496.153.595.459.456 1.526.966 2.844 1.531 3.954.566 1.109 1.304 2.386 2.216 3.831.08.184.208.275.387.275.139 0 .248-.071.327-.213l.09-.336.03-5.282c0-.367-.085-.611-.254-.733-.168-.122-.48-.214-.937-.275-.357-.061-.535-.285-.535-.672 0-.081.01-.142.03-.183C10.053.852 11.243.19 13.206.19L14.87.16c.754 0 1.379.193 1.874.58.496.387.744.997.744 1.832v6.93c.139.103.268.154.387.154.297 0 .555-.184.773-.55 2.181-3.135 3.36-5.231 3.54-6.29 0-.02.02-.071.059-.152.139-.306.367-.57.684-.794.317-.224.595-.377.833-.458a.578.578 0 0 1 .267-.061h4.61l.298.03c.397 0 .704.194.922.58.08.122.134.255.164.397.03.143.05.285.06.428.009.142.014.224.014.244v.214c-.139.834-.49 1.725-1.056 2.671-.565.947-1.284 1.97-2.156 3.069-.873 1.099-1.418 1.822-1.636 2.168-.179.244-.268.468-.268.671 0 .163.08.346.238.55l4.343 5.618c.238.326.357.682.357 1.069 0 .468-.179.855-.536 1.16a2.191 2.191 0 0 1-1.279.519l-.505.03H23.08c-.02 0-.06.006-.12.016a.89.89 0 0 1-.118.015c-.436 0-.843-.194-1.22-.58-.139-.163-1.07-1.364-2.796-3.603a1.6 1.6 0 0 0-.416-.397c-.08.326-.183.794-.312 1.405-.13.61-.223 1.048-.283 1.312l-.09.52c-.197.712-.614 1.14-1.248 1.282l-.417.03h-2.915c-1.645 0-3.286-.773-4.922-2.32-1.636-1.547-3.108-3.547-4.417-6C2.498 9.996 1.28 7.142.15 3.885.049 3.62 0 3.325 0 2.999Zm17.876 7.907c-.417 0-.794-.117-1.13-.35a1.11 1.11 0 0 1-.506-.963V2.572c0-.407-.1-.697-.298-.87-.198-.173-.545-.26-1.04-.26l-1.696.061c-.853 0-1.497.153-1.933.458.872.428 1.308 1.12 1.308 2.077V9.41c-.04.51-.238.931-.595 1.267-.357.336-.753.504-1.19.504-.594 0-1.05-.295-1.367-.885-1.547-2.402-2.697-4.682-3.45-6.84l-.268-.793-3.956-.031c-.258 0-.402.015-.431.046-.03.03-.045.117-.045.26 0 .183.02.376.06.58l.624 1.71c1.666 4.416 3.475 7.897 5.428 10.441 1.953 2.545 3.872 3.817 5.755 3.817h2.975c.119 0 .208-.036.267-.107.06-.071.11-.208.15-.412l.059-.305.565-2.687c.158-.367.297-.61.416-.733.218-.224.476-.336.774-.336.475 0 .961.295 1.457.886l2.528 3.297c.159.265.327.397.506.397h4.907c.595 0 .893-.153.893-.458a.601.601 0 0 0-.09-.305l-4.312-5.527c-.337-.427-.506-.885-.506-1.374 0-.488.159-.956.476-1.404.258-.407.758-1.084 1.502-2.03a45.301 45.301 0 0 0 1.948-2.657c.555-.824.922-1.572 1.1-2.244l.09-.397a.485.485 0 0 1-.03-.198.753.753 0 0 0-.03-.23h-4.67a1.63 1.63 0 0 0-.713.55l-.179.58c-.495 1.405-1.794 3.573-3.896 6.504-.416.407-.902.61-1.457.61Z" fill="#101010"/></svg>